<?xml version="1.0" encoding="UTF-8"?><svg id="Layer_2" xmlns="http://www.w3.org/2000/svg" viewBox="0 0 105.36 56.52"><defs><style>.cls-1{fill:#aba3c8;stroke-width:0px;}</style></defs><g id="Layer_1-2"><path class="cls-1" d="m21.53,14.23c.91-.19,1.56-.39,1.97-.61.41-.22.7-.42.89-.61.09-.06.29-.43.59-1.1.3-.67.55-1.5.75-2.48.2-.98.27-2.05.21-3.21-.06-1.16-.42-2.25-1.08-3.28C23.3.25,20-.59,14.97.41c-.91.19-1.95.63-3.12,1.31-1.17.69-2.25,1.58-3.23,2.67-.98,1.09-1.77,2.37-2.34,3.82-.58,1.45-.74,3.05-.49,4.8.19,1.25.55,2.41,1.1,3.47.55,1.06,1.16,2.05,1.85,2.95.69.91,1.38,1.74,2.09,2.51.7.77,1.3,1.48,1.8,2.13.5.66.99,1.45,1.48,2.37.48.92.87,1.91,1.17,2.98.3,1.06.44,2.17.42,3.33-.02,1.16-.29,2.3-.82,3.42-1.59,3.62-3.53,5.41-5.81,5.34-.94-.03-1.69-.32-2.25-.87-.56-.55-.99-1.2-1.29-1.97-.3-.77-.47-1.56-.52-2.39s0-1.54.12-2.13c.06-.19.16-.41.28-.66.19-.47.52-.97.98-1.5-.34-.12-.71-.18-1.1-.16-.39.02-.76.05-1.1.12-.41.09-.81.2-1.22.33-.34.16-.67.33-.98.52-.28.16-.56.34-.84.56-.28.22-.55.47-.8.75C0,35.2-.09,36.26.09,37.27c.17,1.02.43,1.91.77,2.7.38.91.89,1.75,1.55,2.53.56.69,1.2,1.2,1.92,1.52.72.33,1.43.55,2.13.66.7.11,1.38.12,2.02.05.64-.08,1.2-.16,1.66-.26.59-.12,1.34-.4,2.25-.82.91-.42,1.8-1.1,2.7-2.04s1.71-2.18,2.46-3.73,1.3-3.48,1.64-5.79c.22-1.59.23-3.05.05-4.36s-.52-2.5-.98-3.56c-.47-1.06-1.02-2.02-1.64-2.86-.63-.84-1.25-1.6-1.88-2.27-.63-.67-1.2-1.27-1.73-1.8-.53-.53-.92-1.02-1.17-1.45-.19-.31-.39-.67-.61-1.08-.22-.41-.42-.84-.61-1.31s-.34-.98-.45-1.55c-.11-.56-.13-1.17-.07-1.83.06-.81.34-1.61.82-2.39.48-.78,1.07-1.49,1.76-2.13.69-.64,1.45-1.2,2.27-1.69.83-.48,1.62-.84,2.39-1.08.77-.23,1.45-.33,2.06-.28s1.07.26,1.38.63c.53.72.86,1.47.98,2.25.12.78.13,1.56.02,2.34-.11.78-.3,1.54-.56,2.27-.27.73-.53,1.39-.8,1.97-.27.58-.51,1.06-.73,1.45-.22.39-.31.63-.28.73.19.09.41.16.66.19.25.03.48.05.7.05.25,0,.5-.03.75-.09Z"/><path class="cls-1" d="m105.15,24.38c-.14-.11-.33-.14-.56-.09s-.46.2-.68.45c-.63.75-1.41,1.64-2.37,2.67-.95,1.03-1.98,2.02-3.09,2.98-1.11.95-2.24,1.77-3.4,2.44-1.16.67-2.27,1.01-3.33,1.01-.5,0-.99-.07-1.48-.21-.48-.14-.91-.38-1.29-.7s-.69-.76-.94-1.29c-.25-.53-.39-1.19-.42-1.97.47-.34,1.02-.73,1.64-1.15.62-.42,1.28-.87,1.97-1.34.62-.44,1.29-.92,1.99-1.45.7-.53,1.37-1.12,1.99-1.78.62-.66,1.16-1.39,1.62-2.2.45-.81.73-1.7.82-2.67.06-.87-.17-1.61-.7-2.2-.53-.59-1.39-.89-2.58-.89-1.25,0-2.49.39-3.73,1.17-1.23.78-2.34,1.77-3.33,2.95-.98,1.19-1.81,2.49-2.48,3.91-.67,1.42-1.07,2.77-1.2,4.05-.15,1.46-.04,2.7.29,3.75-.54.4-1.11.79-1.72,1.17-.02-.48-.07-.94-.16-1.38-.25-1.24-1.4-2.03-2.65-1.82-.2.03-.41.08-.61.13-.53.14-1.06.34-1.59.59.41-.47.83-1.02,1.27-1.64.44-.62.92-1.3,1.45-2.02,1.28-1.94,1.71-3.27,2.34-4.75.62-1.48.58-2.93-.18-4.02-1.28-1.84-4.32-1.32-5.51-.44-1.36,1.01-2.51,3.12-2.51,3.12l-.74,1.17s-1.48,1.91-1.71,2.2c-.26.32-.41.51-.41.51-.75.94-.5.69-1.14,1.09.03-.25,0,0,.03-.36.03-.36.04-.66.04-.91-.01-1.22-.23-2.25-.64-3.11-.42-.85-.92-1.56-1.5-2.12-.58-.56-1.18-.97-1.79-1.25-.61-.27-1.12-.43-1.53-.45-.09-.03-.18-.06-.26-.09-.08-.03-.16-.05-.26-.04-.56,0-1.14.08-1.73.23-.59.15-1.14.36-1.66.63-.51.27-.96.61-1.35,1.02-.39.41-.67.88-.85,1.42-.52.63-.98,1.32-1.36,2.08-.26.52-.48,1.04-.68,1.55-.22.13-.44.26-.66.39-.78.41-1.52.77-2.24,1.06.03-.25.06-.56.08-.92.03-.36.04-.66.04-.91-.01-1.22-.23-2.25-.64-3.11-.42-.85-.92-1.56-1.5-2.12-.58-.56-1.18-.97-1.79-1.25s-1.12-.43-1.53-.45c-.09-.03-.18-.06-.26-.09-.08-.03-.16-.05-.26-.04-.56,0-1.14.08-1.73.23-.59.15-1.14.36-1.66.63-.51.27-.96.61-1.35,1.02-.39.41-.67.88-.85,1.42-.52.63-.98,1.32-1.36,2.08-.38.75-.69,1.51-.94,2.26-.24.75-.43,1.49-.56,2.21-.13.72-.2,1.38-.19,1.97,0,.84.06,1.75.15,2.72.01.12.04.23.06.34-.35.32-.7.64-1.05.92-.86.69-1.57,1.03-2.13,1.03s-.87-.25-.91-.75c-.05-.5.02-1.09.21-1.78.34-1.06.63-2.04.87-2.93s.43-1.66.59-2.32l.52-2.06c.28-1,.4-1.92.35-2.77s-.2-1.57-.47-2.18c-.27-.61-.63-1.09-1.1-1.43-.47-.34-1-.52-1.59-.52-.72,0-1.42.15-2.11.45-.69.3-1.34.68-1.95,1.15s-1.17.99-1.69,1.57c-.52.58-.98,1.15-1.38,1.71.19-.53.34-1.05.47-1.55.12-.44.25-.85.38-1.24.12-.39.23-.7.33-.91-.19-.16-.4-.27-.63-.35-.23-.08-.46-.13-.68-.16-.25-.03-.5-.05-.75-.05-.28.03-.55.09-.8.19-.25.06-.49.15-.73.26-.23.11-.46.26-.68.45-.31,1.19-.59,2.28-.82,3.28-.23,1-.43,1.88-.59,2.62-.19.88-.36,1.67-.52,2.39-.22.91-.45,1.86-.7,2.86-.25,1-.49,1.95-.73,2.84s-.44,1.66-.61,2.32c-.17.66-.27,1.08-.3,1.27-.06.28.1.42.49.42s.85-.09,1.38-.28c.53-.19,1.03-.43,1.5-.73s.75-.6.84-.91c.09-.44.2-.9.33-1.38.12-.48.26-1.05.4-1.69.14-.64.3-1.36.49-2.16s.42-1.73.7-2.79c.53-.78,1.07-1.54,1.62-2.27.55-.73,1.09-1.38,1.64-1.95.55-.56,1.09-1.01,1.62-1.34.53-.33,1.05-.49,1.55-.49.41,0,.67.23.8.68.12.45.16,1.03.09,1.73-.06.7-.2,1.48-.4,2.34-.2.86-.42,1.72-.66,2.58-.23.86-.46,1.66-.68,2.39-.22.73-.38,1.32-.47,1.76-.16.66-.19,1.27-.09,1.85.09.58.3,1.09.61,1.52.31.44.73.79,1.24,1.05.52.27,1.13.4,1.85.4s1.41-.21,2.18-.63c.77-.42,1.54-.97,2.32-1.64.16-.14.32-.3.48-.45.37.81.92,1.48,1.66,2.02.74.54,1.75.8,3.03.79,1.09-.01,2.1-.23,3.02-.67.92-.43,1.74-1.03,2.47-1.78.73-.76,1.35-1.66,1.87-2.69.52-1.04.93-2.15,1.23-3.34.79-.27,1.62-.67,2.48-1.17,0,0,0,0,0,.01-.13.72-.2,1.38-.19,1.97,0,.84.06,1.75.15,2.72.09.97.32,1.86.69,2.66.37.81.92,1.48,1.66,2.02.74.54,1.75.8,3.03.79,1.09-.01,2.1-.23,3.02-.67.92-.43,1.74-1.03,2.47-1.78.73-.76,1.35-1.66,1.87-2.69.52-1.04.93-2.15,1.23-3.34.37-.13.96-.55,1.59-1.09,1.46-1.16,2.75-2.8,2.75-2.8,0,0,2.15-3.12,2.66-3.81.46-.62,3.06-2.55,3.39-.42.11.72-1.05,2.45-1.41,3.06-.36.61-1.75,2.53-2,2.87-.81,1.19-1.75,1.97-2.61,2.73-.86.77-1.51,1.32-1.95,1.66-.44.31-.68.73-.73,1.27-.05.53.1,1.06.45,1.59.12.22.28.41.47.56.16.16.35.29.59.4.23.11.51.15.82.12,1.12-1.06,2.07-1.84,2.84-2.34.77-.5,1.43-.75,1.99-.75.38,0,.66.17.87.52.2.34.18,1.03-.07,2.06-.59.31-1.23.63-1.92.96-.69.33-1.44.66-2.25,1.01-1.66.78-3.16,1.74-4.5,2.88-1.34,1.14-2.49,2.34-3.45,3.61-.95,1.27-1.69,2.52-2.23,3.75-.53,1.23-.81,2.32-.84,3.26-.03.72-.02,1.46.05,2.23.06.77.26,1.47.59,2.11.33.64.84,1.16,1.52,1.57.69.41,1.64.61,2.86.61s2.37-.41,3.47-1.24c1.09-.83,2.1-1.91,3.02-3.23.92-1.33,1.76-2.8,2.51-4.41.75-1.61,1.41-3.2,1.97-4.76.56-1.56,1.02-3.01,1.36-4.34.34-1.33.58-2.35.7-3.07.92-.56,1.78-1.19,2.6-1.88.25.42.53.8.85,1.13.66.69,1.38,1.2,2.18,1.52s1.54.49,2.23.49c1.31,0,2.66-.31,4.05-.94,1.39-.62,2.75-1.45,4.08-2.46,1.33-1.02,2.59-2.17,3.77-3.47,1.19-1.3,2.25-2.63,3.19-4.01.22-.34.33-.65.33-.91s-.07-.45-.21-.56Zm-56.59,6.84c-.29.55-.62,1.04-.99,1.46-.37.43-.79.77-1.25,1.05-.47.27-.98.41-1.54.42-.5,0-.91-.12-1.22-.39-.32-.26-.57-.6-.76-1.02s-.32-.9-.39-1.45c-.07-.55-.11-1.1-.11-1.66,0-.56.05-1.16.17-1.78.12-.63.27-1.27.45-1.93.48,1.09,1.15,1.98,2.02,2.67.87.69,1.89,1.03,3.08,1.02.25,0,.48-.01.68-.03.2-.02.41-.04.63-.08-.21.6-.46,1.17-.75,1.72Zm1.87-6.51c0,.25-.03.54-.11.87-.07.33-.16.7-.25,1.1-.16.03-.31.06-.47.08-.16.02-.31.03-.47.03-.97.01-1.73-.13-2.28-.42-.55-.29-.95-.65-1.21-1.09-.26-.43-.42-.93-.48-1.47-.07-.55-.11-1.07-.11-1.57,0-.31.04-.61.13-.89.46-.6.97-1.07,1.51-1.4.54-.33,1.11-.5,1.71-.51.38,0,.7.16.97.48.27.33.49.74.67,1.26.18.51.3,1.08.37,1.71.07.62.08,1.23.02,1.83Zm14.52,7.03c-.29.55-.62,1.04-.99,1.46-.37.43-.79.77-1.25,1.04-.47.27-.98.41-1.54.42-.5,0-.91-.12-1.22-.39-.32-.26-.57-.6-.76-1.02s-.32-.9-.39-1.45c-.07-.55-.11-1.1-.11-1.66,0-.56.05-1.16.17-1.78.12-.63.27-1.27.45-1.93.48,1.09,1.15,1.98,2.02,2.67.87.69,1.89,1.03,3.08,1.02.25,0,.48-.01.68-.03.2-.02.41-.04.63-.08-.21.6-.46,1.17-.75,1.72Zm1.87-6.51c0,.25-.03.54-.11.87-.07.33-.16.7-.25,1.1-.16.03-.31.06-.47.08-.16.02-.31.03-.47.03-.97.01-1.73-.13-2.28-.42-.55-.29-.95-.65-1.21-1.09-.26-.43-.42-.93-.48-1.47-.07-.55-.11-1.07-.11-1.57,0-.31.04-.61.13-.89.46-.6.96-1.07,1.51-1.4.54-.33,1.11-.5,1.71-.51.38,0,.7.16.97.48.27.33.49.74.67,1.26.18.51.3,1.08.37,1.71.07.62.08,1.23.02,1.83Zm11.58,12.37c-.08.2-.15.43-.21.68-.44,1.22-1.02,2.66-1.73,4.34-.72,1.67-1.49,3.28-2.32,4.83-.83,1.55-1.67,2.86-2.53,3.94-.86,1.08-1.66,1.62-2.41,1.62-.69,0-1.16-.27-1.43-.8-.27-.53-.38-1.17-.35-1.92.06-1.25.38-2.48.94-3.7s1.34-2.39,2.32-3.52,2.15-2.2,3.49-3.21c1.34-1.02,2.83-1.98,4.45-2.88-.06.22-.13.43-.21.63Zm10.36-14.2c.44-1.02.91-1.88,1.41-2.58.5-.7,1.01-1.24,1.52-1.62s.96-.56,1.34-.56c.34,0,.61.13.8.4.19.27.25.7.19,1.29-.06.56-.36,1.23-.89,2.02-.53.78-1.47,1.69-2.81,2.72-.44.34-.88.66-1.31.96-.44.3-.84.59-1.22.87.22-1.31.55-2.48.98-3.49Z"/></g></svg>